<svg xmlns="http://www.w3.org/2000/svg" viewBox="0 0 2445.79 383.4"><defs><style>.cls-1,.cls-4{fill:#fed111;}.cls-2,.cls-3,.cls-5,.cls-6{fill:none;}.cls-2,.cls-3,.cls-5{stroke:#000;}.cls-2,.cls-4,.cls-5,.cls-6{stroke-miterlimit:10;}.cls-2,.cls-3{stroke-width:2px;}.cls-3{stroke-linecap:round;stroke-linejoin:round;}.cls-4,.cls-6{stroke:#231f20;}.cls-4{stroke-width:3px;}.cls-5,.cls-6{stroke-width:5px;}</style></defs><title>logo 14 march</title><g id="Layer_6" data-name="Layer 6"><polygon class="cls-1" points="2360.02 44.43 2377.13 74.06 2360.02 103.69 2325.8 103.69 2308.7 74.06 2325.8 44.43 2360.02 44.43"/><polygon class="cls-1" points="2360.02 162.96 2377.13 192.59 2360.02 222.22 2325.8 222.22 2308.7 192.59 2325.8 162.96 2360.02 162.96"/><polygon class="cls-1" points="2360.02 281.49 2377.13 311.12 2360.02 340.75 2325.8 340.75 2308.7 311.12 2325.8 281.49 2360.02 281.49"/><polygon class="cls-1" points="2308.7 14.79 2325.8 44.43 2308.7 74.06 2274.53 74.06 2257.42 44.43 2257.37 44.43 2274.48 14.79 2308.7 14.79"/><polygon class="cls-1" points="2308.7 133.32 2325.8 162.96 2308.7 192.59 2274.53 192.59 2257.42 162.96 2274.53 133.32 2308.7 133.32"/><polygon class="cls-1" points="2308.7 251.85 2325.8 281.49 2308.7 311.12 2274.53 311.12 2257.42 281.49 2274.53 251.85 2308.7 251.85"/><polygon class="cls-1" points="2257.42 44.43 2274.53 74.06 2274.48 74.06 2257.37 44.43 2257.42 44.43"/><polygon class="cls-1" points="2274.53 74.06 2257.42 103.69 2223.21 103.69 2206.1 74.06 2223.21 44.43 2257.37 44.43 2274.48 74.06 2274.53 74.06"/><polygon class="cls-1" points="2257.42 103.69 2274.53 133.32 2274.48 133.32 2257.37 162.96 2223.21 162.96 2206.1 133.32 2223.21 103.69 2257.42 103.69"/><polygon class="cls-1" points="2274.53 192.59 2257.42 222.22 2223.21 222.22 2206.1 192.59 2223.21 162.96 2257.37 162.96 2274.48 192.59 2274.53 192.59"/><polygon class="cls-1" points="2257.42 222.22 2274.53 251.85 2274.48 251.85 2257.37 281.49 2223.21 281.49 2206.1 251.85 2223.21 222.22 2257.42 222.22"/><polygon class="cls-1" points="2274.53 311.12 2257.42 340.75 2223.21 340.75 2206.1 311.12 2223.21 281.49 2257.37 281.49 2274.48 311.12 2274.53 311.12"/><polygon class="cls-1" points="2154.77 44.43 2171.88 74.06 2154.77 103.69 2120.56 103.69 2103.45 74.06 2120.56 44.43 2154.77 44.43"/><polygon class="cls-1" points="2154.77 103.69 2171.88 133.32 2154.77 162.96 2120.56 162.96 2103.45 133.32 2120.56 103.69 2154.77 103.69"/><polygon class="cls-1" points="2154.77 162.96 2171.88 192.59 2154.77 222.22 2120.56 222.22 2103.45 192.59 2120.56 162.96 2154.77 162.96"/><polygon class="cls-1" points="2154.77 222.22 2171.88 251.85 2154.77 281.49 2120.58 281.49 2120.59 281.47 2103.48 251.84 2103.46 251.84 2120.56 222.22 2154.77 222.22"/><polygon class="cls-1" points="2154.77 281.49 2171.88 311.12 2154.77 340.75 2120.56 340.75 2103.45 311.12 2103.46 311.1 2103.48 311.1 2120.58 281.49 2154.77 281.49"/><polygon class="cls-1" points="2103.45 251.85 2120.56 281.49 2103.46 311.1 2069.26 311.1 2052.18 281.52 2069.29 251.88 2069.27 251.84 2103.46 251.84 2103.45 251.85"/><polygon class="cls-1" points="2052.18 44.46 2069.29 74.09 2052.18 103.72 2017.97 103.72 2000.86 74.09 2017.97 44.46 2052.18 44.46"/><polygon class="cls-1" points="2052.18 103.72 2069.29 133.35 2052.18 162.99 2017.97 162.99 2000.86 133.35 2017.97 103.72 2052.18 103.72"/><polygon class="cls-1" points="2052.18 162.99 2069.29 192.62 2052.18 222.25 2017.97 222.25 2000.86 192.62 2017.97 162.99 2052.18 162.99"/><polygon class="cls-1" points="2069.26 311.1 2069.29 311.15 2052.18 340.78 2017.97 340.78 2000.86 311.15 2017.97 281.52 2052.18 281.52 2069.26 311.1"/><polygon class="cls-1" points="2052.18 222.25 2069.26 251.84 2052.15 281.47 2052.18 281.52 2017.97 281.52 2000.86 251.88 2017.97 222.25 2052.18 222.25"/><polygon class="cls-1" points="1949.56 44.44 1966.67 74.07 1949.56 103.71 1915.4 103.71 1898.29 74.07 1898.24 74.07 1915.35 44.44 1949.56 44.44"/><polygon class="cls-1" points="1949.56 281.5 1966.67 311.13 1949.56 340.77 1915.35 340.77 1898.24 311.13 1898.29 311.13 1915.4 281.5 1949.56 281.5"/><polygon class="cls-1" points="1915.4 103.71 1898.29 133.34 1864.07 133.34 1846.96 103.71 1864.07 74.07 1898.24 74.07 1915.35 103.71 1915.4 103.71"/><polygon class="cls-1" points="1898.29 133.34 1915.4 162.97 1898.29 192.6 1864.07 192.6 1846.96 162.97 1864.07 133.34 1898.29 133.34"/><polygon class="cls-1" points="1898.29 192.6 1915.4 222.24 1898.29 251.87 1864.07 251.87 1846.96 222.24 1864.07 192.6 1898.29 192.6"/><polygon class="cls-1" points="1898.29 251.87 1915.4 281.5 1915.35 281.5 1898.24 311.13 1864.07 311.13 1846.96 281.5 1864.07 251.87 1898.29 251.87"/><polygon class="cls-1" points="1846.96 44.44 1864.07 74.07 1846.96 103.71 1812.75 103.71 1795.64 74.07 1812.75 44.44 1846.96 44.44"/><polygon class="cls-1" points="1846.96 281.5 1864.07 311.13 1846.96 340.77 1812.75 340.77 1795.64 311.13 1812.75 281.5 1846.96 281.5"/><polygon class="cls-1" points="1744.34 44.43 1761.45 74.06 1744.34 103.69 1710.13 103.69 1693.02 74.06 1710.13 44.43 1744.34 44.43"/><polygon class="cls-1" points="1744.34 103.69 1761.45 133.32 1744.34 162.96 1710.13 162.96 1693.02 133.32 1710.13 103.69 1744.34 103.69"/><polygon class="cls-1" points="1744.34 162.96 1761.45 192.59 1744.34 222.22 1710.13 222.22 1693.02 192.59 1710.13 162.96 1744.34 162.96"/><polygon class="cls-1" points="1744.34 222.22 1761.45 251.85 1744.34 281.49 1710.13 281.49 1693.02 251.85 1710.13 222.22 1744.34 222.22"/><polygon class="cls-1" points="1744.34 281.49 1761.45 311.12 1744.34 340.75 1710.13 340.75 1693.02 311.12 1710.13 281.49 1744.34 281.49"/><polygon class="cls-1" points="1693.02 133.32 1710.13 162.96 1693.02 192.59 1658.85 192.59 1641.75 162.96 1658.85 133.32 1693.02 133.32"/><polygon class="cls-1" points="1641.75 44.43 1658.85 74.06 1641.75 103.69 1607.53 103.69 1590.42 74.06 1607.53 44.43 1641.75 44.43"/><polygon class="cls-1" points="1641.75 103.69 1658.85 133.32 1658.8 133.32 1641.69 162.96 1607.53 162.96 1590.42 133.32 1607.53 103.69 1641.75 103.69"/><polygon class="cls-1" points="1658.85 192.59 1641.75 222.22 1607.53 222.22 1590.42 192.59 1607.53 162.96 1641.69 162.96 1658.8 192.59 1658.85 192.59"/><polygon class="cls-1" points="1641.75 222.22 1658.85 251.85 1641.75 281.49 1607.53 281.49 1590.42 251.85 1607.53 222.22 1641.75 222.22"/><polygon class="cls-1" points="1641.75 281.49 1658.85 311.12 1641.75 340.75 1607.53 340.75 1590.42 311.12 1607.53 281.49 1641.75 281.49"/><polygon class="cls-1" points="1026.07 44.46 1043.18 74.09 1026.07 103.72 991.87 103.72 991.88 103.71 974.77 74.07 974.75 74.07 991.85 44.46 1026.07 44.46"/><polygon class="cls-1" points="1026.07 281.52 1043.18 311.15 1026.07 340.78 991.85 340.78 974.74 311.15 974.75 311.13 974.77 311.13 991.87 281.52 1026.07 281.52"/><polygon class="cls-1" points="974.77 251.87 991.88 281.5 991.87 281.52 991.85 281.52 974.75 311.13 940.56 311.13 923.45 281.5 940.56 251.87 974.77 251.87"/><polygon class="cls-1" points="991.87 103.72 974.77 133.34 940.56 133.34 923.45 103.71 940.56 74.07 974.75 74.07 974.74 74.09 991.85 103.72 991.87 103.72"/><polygon class="cls-1" points="923.45 103.71 940.56 133.34 923.45 162.97 889.23 162.97 872.12 133.34 889.23 103.71 923.45 103.71"/><polygon class="cls-1" points="923.45 162.97 940.56 192.6 923.45 222.24 889.23 222.24 872.12 192.6 889.23 162.97 923.45 162.97"/><polygon class="cls-1" points="923.45 222.24 940.56 251.87 923.45 281.5 889.23 281.5 872.12 251.87 889.23 222.24 923.45 222.24"/><polygon class="cls-1" points="820.85 44.44 837.96 74.07 820.85 103.71 786.63 103.71 769.53 74.07 786.63 44.44 820.85 44.44"/><polygon class="cls-1" points="820.85 281.5 837.96 311.13 820.85 340.77 786.63 340.77 769.53 311.13 769.53 311.12 786.63 281.5 820.85 281.5"/><polygon class="cls-1" points="769.53 74.07 786.63 103.71 769.53 133.34 735.31 133.34 718.2 103.71 718.21 103.69 718.23 103.69 735.33 74.07 769.53 74.07"/><polygon class="cls-1" points="769.53 133.34 786.63 162.97 769.53 192.6 735.31 192.6 718.2 162.97 735.31 133.34 769.53 133.34"/><polygon class="cls-1" points="769.53 192.6 786.63 222.24 769.54 251.86 769.53 251.85 735.31 251.85 735.3 251.86 718.2 222.24 735.31 192.6 769.53 192.6"/><polygon class="cls-1" points="769.54 251.86 786.63 281.49 786.63 281.5 769.53 311.12 735.34 311.12 718.23 281.49 718.2 281.49 735.3 251.86 735.31 251.87 769.53 251.87 769.54 251.86"/><polygon class="cls-1" points="769.54 251.86 769.53 251.87 735.31 251.87 735.3 251.86 735.31 251.85 769.53 251.85 769.54 251.86"/><polygon class="cls-1" points="718.23 44.43 735.34 74.06 735.33 74.07 735.31 74.07 718.21 103.69 684.01 103.69 666.91 74.06 684.01 44.43 718.23 44.43"/><polygon class="cls-1" points="718.23 281.49 735.34 311.12 735.31 311.12 718.2 281.49 718.23 281.49"/><polygon class="cls-1" points="735.34 311.12 718.23 340.75 684.01 340.75 666.91 311.12 684.01 281.49 718.2 281.49 735.31 311.12 735.34 311.12"/><polygon class="cls-1" points="615.63 44.43 632.74 74.06 615.63 103.69 581.41 103.69 564.31 74.06 581.41 44.43 615.63 44.43"/><polygon class="cls-1" points="615.63 103.69 632.74 133.32 615.63 162.96 581.41 162.96 564.31 133.32 581.41 103.69 615.63 103.69"/><polygon class="cls-1" points="615.63 222.22 632.74 251.85 615.63 281.49 581.41 281.49 564.31 251.85 581.41 222.22 615.63 222.22"/><polygon class="cls-1" points="615.63 281.49 632.74 311.12 615.63 340.75 581.41 340.75 564.31 311.12 581.41 281.49 615.63 281.49"/><polygon class="cls-1" points="564.31 14.79 581.41 44.43 564.31 74.06 530.09 74.06 512.98 44.43 530.09 14.79 564.31 14.79"/><polygon class="cls-1" points="564.31 133.32 581.41 162.96 564.31 192.59 530.09 192.59 512.98 162.96 530.09 133.32 564.31 133.32"/><polygon class="cls-1" points="564.31 192.59 581.41 222.22 564.31 251.85 530.09 251.85 512.98 222.22 530.09 192.59 564.31 192.59"/><polygon class="cls-1" points="564.31 311.12 581.41 340.75 564.31 370.38 530.09 370.38 512.98 340.75 530.09 311.12 564.31 311.12"/><polygon class="cls-1" points="512.98 44.43 530.09 74.06 512.98 103.69 478.77 103.69 461.66 74.06 478.77 44.43 512.98 44.43"/><polygon class="cls-1" points="512.98 103.69 530.09 133.32 512.98 162.96 478.77 162.96 461.66 133.32 478.77 103.69 512.98 103.69"/><polygon class="cls-1" points="512.98 162.96 530.09 192.59 512.98 222.22 478.77 222.22 461.66 192.59 478.77 162.96 512.98 162.96"/><polygon class="cls-1" points="512.98 222.22 530.09 251.85 512.98 281.49 478.77 281.49 461.66 251.85 478.77 222.22 512.98 222.22"/><polygon class="cls-1" points="512.98 281.49 530.09 311.12 512.98 340.75 478.77 340.75 461.66 311.12 478.77 281.49 512.98 281.49"/><polygon class="cls-1" points="410.39 44.46 427.5 74.09 410.39 103.72 376.17 103.72 359.07 74.09 376.17 44.46 410.39 44.46"/><polygon class="cls-1" points="410.39 103.72 427.5 133.35 410.39 162.99 376.17 162.99 359.07 133.35 376.17 103.72 410.39 103.72"/><polygon class="cls-1" points="410.39 162.99 427.5 192.62 410.39 222.25 376.17 222.25 359.07 192.62 376.17 162.99 410.39 162.99"/><polygon class="cls-1" points="410.39 222.25 427.5 251.88 410.39 281.52 376.17 281.52 359.07 251.88 376.17 222.25 410.39 222.25"/><polygon class="cls-1" points="410.39 281.52 427.5 311.15 410.39 340.78 376.19 340.78 376.2 340.77 359.1 311.13 359.08 311.13 376.17 281.52 410.39 281.52"/><polygon class="cls-1" points="376.19 340.78 359.1 370.4 324.88 370.4 307.77 340.77 324.88 311.13 359.08 311.13 359.07 311.15 376.17 340.78 376.19 340.78"/><polygon class="cls-1" points="307.77 44.44 324.88 74.07 307.77 103.71 273.55 103.71 256.45 74.07 273.55 44.44 307.77 44.44"/><polygon class="cls-1" points="307.77 103.71 324.88 133.34 307.77 162.97 273.55 162.97 256.45 133.34 273.55 103.71 307.77 103.71"/><polygon class="cls-1" points="307.77 162.97 324.88 192.6 307.77 222.24 273.55 222.24 256.45 192.6 273.55 162.97 307.77 162.97"/><polygon class="cls-1" points="307.77 222.24 324.88 251.87 307.77 281.5 273.55 281.5 256.45 251.87 273.55 222.24 307.77 222.24"/><polygon class="cls-1" points="307.77 281.5 324.88 311.13 307.77 340.77 273.55 340.77 256.45 311.13 273.55 281.5 307.77 281.5"/><polygon class="cls-1" points="205.17 44.44 222.28 74.07 205.17 103.71 170.96 103.71 153.85 74.07 170.96 44.44 205.17 44.44"/><polygon class="cls-1" points="205.17 281.5 222.28 311.13 205.17 340.77 170.96 340.77 153.85 311.13 170.96 281.5 205.17 281.5"/><polygon class="cls-1" points="153.85 74.07 170.96 103.71 153.85 133.34 119.65 133.34 119.66 133.32 102.55 103.69 102.53 103.69 119.63 74.07 153.85 74.07"/><polygon class="cls-1" points="153.85 251.87 170.96 281.5 153.85 311.13 119.63 311.13 102.52 281.5 102.53 281.49 102.55 281.49 119.65 251.87 153.85 251.87"/><polygon class="cls-1" points="102.55 162.96 119.66 192.59 102.55 222.22 68.34 222.22 51.23 192.59 68.34 162.96 102.55 162.96"/><polygon class="cls-1" points="102.55 222.22 119.66 251.85 119.65 251.87 119.63 251.87 102.53 281.49 68.34 281.49 51.23 251.85 68.34 222.22 102.55 222.22"/><polygon class="cls-1" points="119.65 133.34 102.55 162.96 68.34 162.96 51.23 133.32 68.34 103.69 102.53 103.69 102.52 103.71 119.63 133.34 119.65 133.34"/><polyline class="cls-2" points="410.39 103.72 427.5 74.09 410.39 44.46 376.17 44.46 359.07 74.09 376.17 103.72"/><polyline class="cls-2" points="410.39 162.99 427.5 133.35 410.39 103.72 376.17 103.72 359.07 133.35 376.17 162.99"/><polyline class="cls-2" points="410.39 222.25 427.5 192.62 410.39 162.99 376.17 162.99 359.07 192.62 376.17 222.25"/><polyline class="cls-2" points="410.39 281.52 427.5 251.88 410.39 222.25 376.17 222.25 359.07 251.88 376.17 281.52"/><polygon class="cls-2" points="359.08 311.13 359.07 311.15 376.17 340.78 376.19 340.78 410.39 340.78 427.5 311.15 410.39 281.52 376.17 281.52 359.08 311.13"/><polyline class="cls-2" points="307.77 340.77 324.88 370.4 359.1 370.4 376.19 340.78 376.2 340.77 359.1 311.13 359.08 311.13 324.88 311.13"/><polyline class="cls-2" points="307.77 103.71 324.88 74.07 307.77 44.44 273.55 44.44 256.45 74.07 273.55 103.71"/><polyline class="cls-2" points="307.77 162.97 324.88 133.34 307.77 103.71 273.55 103.71 256.45 133.34 273.55 162.97"/><polyline class="cls-2" points="307.77 222.24 324.88 192.6 307.77 162.97 273.55 162.97 256.45 192.6 273.55 222.24"/><polyline class="cls-2" points="307.77 281.5 324.88 251.87 307.77 222.24 273.55 222.24 256.45 251.87 273.55 281.5"/><polygon class="cls-2" points="273.55 281.5 256.45 311.13 273.55 340.77 307.77 340.77 324.88 311.13 307.77 281.5 273.55 281.5"/><polyline class="cls-2" points="170.96 103.71 205.17 103.71 222.28 74.07 205.17 44.44 170.96 44.44 153.85 74.07"/><polyline class="cls-2" points="153.85 311.13 170.96 340.77 205.17 340.77 222.28 311.13 205.17 281.5 170.96 281.5"/><polygon class="cls-2" points="102.53 103.69 102.52 103.71 119.63 133.34 119.65 133.34 153.85 133.34 170.96 103.71 153.85 74.07 119.63 74.07 102.53 103.69"/><polygon class="cls-2" points="102.53 281.49 102.52 281.5 119.63 311.13 153.85 311.13 170.96 281.5 153.85 251.87 119.65 251.87 119.63 251.87 102.53 281.49"/><polyline class="cls-2" points="102.55 162.96 119.65 133.34 119.66 133.32 102.55 103.69 102.53 103.69 68.34 103.69 51.23 133.32 68.34 162.96"/><polyline class="cls-2" points="102.55 222.22 119.66 192.59 102.55 162.96 68.34 162.96 51.23 192.59 68.34 222.22"/><polygon class="cls-2" points="68.34 222.22 51.23 251.85 68.34 281.49 102.53 281.49 102.55 281.49 119.65 251.87 119.66 251.85 102.55 222.22 68.34 222.22"/><polygon class="cls-2" points="974.75 74.07 974.74 74.09 991.85 103.72 991.87 103.72 1026.07 103.72 1043.18 74.09 1026.07 44.46 991.85 44.46 974.75 74.07"/><polygon class="cls-2" points="974.75 311.13 974.74 311.15 991.85 340.78 1026.07 340.78 1043.18 311.15 1026.07 281.52 991.87 281.52 991.85 281.52 974.75 311.13"/><polyline class="cls-2" points="940.56 133.34 974.77 133.34 991.87 103.72 991.88 103.71 974.77 74.07 974.75 74.07 940.56 74.07 923.45 103.71"/><polyline class="cls-2" points="923.45 281.5 940.56 311.13 974.75 311.13 974.77 311.13 991.87 281.52 991.88 281.5 974.77 251.87 940.56 251.87"/><polyline class="cls-2" points="923.45 162.97 940.56 133.34 923.45 103.71 889.23 103.71 872.12 133.34 889.23 162.97"/><polyline class="cls-2" points="923.45 222.24 940.56 192.6 923.45 162.97 889.23 162.97 872.12 192.6 889.23 222.24"/><polygon class="cls-2" points="889.23 222.24 872.12 251.87 889.23 281.5 923.45 281.5 940.56 251.87 923.45 222.24 889.23 222.24"/><polyline class="cls-2" points="786.63 103.71 820.85 103.71 837.96 74.07 820.85 44.44 786.63 44.44 769.53 74.07"/><polyline class="cls-2" points="769.53 311.12 769.53 311.13 786.63 340.77 820.85 340.77 837.96 311.13 820.85 281.5 786.63 281.5"/><polyline class="cls-2" points="769.53 133.34 786.63 103.71 769.53 74.07 735.33 74.07 735.31 74.07 718.21 103.69 718.2 103.71 735.31 133.34"/><polyline class="cls-2" points="769.53 192.6 786.63 162.97 769.53 133.34 735.31 133.34 718.2 162.97 735.31 192.6"/><polyline class="cls-2" points="769.54 251.86 786.63 222.24 769.53 192.6 735.31 192.6 718.2 222.24 735.3 251.86"/><polygon class="cls-2" points="718.2 281.49 735.31 311.12 735.34 311.12 769.53 311.12 786.63 281.5 786.63 281.49 769.54 251.86 769.53 251.85 735.31 251.85 735.3 251.86 718.2 281.49"/><polygon class="cls-2" points="735.33 74.07 735.34 74.06 718.23 44.43 684.01 44.43 666.91 74.06 684.01 103.69 718.21 103.69 718.23 103.69 735.33 74.07"/><polyline class="cls-2" points="718.2 281.49 684.01 281.49 666.91 311.12 684.01 340.75 718.23 340.75 735.34 311.12"/><line class="cls-2" x1="564.31" y1="74.06" x2="581.41" y2="103.69"/><polyline class="cls-2" points="615.63 103.69 632.74 74.06 615.63 44.43 581.41 44.43"/><polyline class="cls-2" points="581.41 162.96 615.63 162.96 632.74 133.32 615.63 103.69 581.41 103.69 564.31 133.32"/><line class="cls-3" x1="564.31" y1="251.85" x2="581.41" y2="281.49"/><polyline class="cls-2" points="615.63 281.49 632.74 251.85 615.63 222.22 581.41 222.22"/><line class="cls-3" x1="581.41" y1="281.49" x2="564.31" y2="311.12"/><polyline class="cls-2" points="581.41 340.75 615.63 340.75 632.74 311.12 615.63 281.49 581.41 281.49"/><polyline class="cls-2" points="530.09 74.06 564.31 74.06 581.41 44.43 564.31 14.79 530.09 14.79 512.98 44.43"/><polyline class="cls-2" points="564.31 192.59 581.41 162.96 564.31 133.32 530.09 133.32"/><polyline class="cls-2" points="564.31 251.85 581.41 222.22 564.31 192.59 530.09 192.59"/><line class="cls-3" x1="530.09" y1="251.85" x2="564.31" y2="251.85"/><line class="cls-3" x1="564.31" y1="311.12" x2="530.09" y2="311.12"/><polyline class="cls-2" points="512.98 340.75 530.09 370.38 564.31 370.38 581.41 340.75 564.31 311.12"/><polyline class="cls-2" points="512.98 103.69 530.09 74.06 512.98 44.43 478.77 44.43 461.66 74.06 478.77 103.69"/><polyline class="cls-2" points="512.98 162.96 530.09 133.32 512.98 103.69 478.77 103.69 461.66 133.32 478.77 162.96"/><polyline class="cls-2" points="512.98 222.22 530.09 192.59 512.98 162.96 478.77 162.96 461.66 192.59 478.77 222.22"/><polyline class="cls-2" points="530.09 251.85 512.98 222.22 478.77 222.22 461.66 251.85 478.77 281.49"/><line class="cls-3" x1="512.98" y1="281.49" x2="530.09" y2="251.85"/><polyline class="cls-2" points="512.98 281.49 478.77 281.49 461.66 311.12 478.77 340.75 512.98 340.75 530.09 311.12"/><line class="cls-3" x1="530.09" y1="311.12" x2="512.98" y2="281.49"/><polyline class="cls-2" points="2052.18 103.72 2069.29 74.09 2052.18 44.46 2017.97 44.46 2000.86 74.09 2017.97 103.72"/><polyline class="cls-2" points="2052.18 162.99 2069.29 133.35 2052.18 103.72 2017.97 103.72 2000.86 133.35 2017.97 162.99"/><polyline class="cls-2" points="2052.18 222.25 2069.29 192.62 2052.18 162.99 2017.97 162.99 2000.86 192.62 2017.97 222.25"/><polyline class="cls-2" points="2069.26 251.84 2052.18 222.25 2017.97 222.25 2000.86 251.88 2017.97 281.52"/><polyline class="cls-2" points="2052.18 281.52 2069.29 251.88 2069.27 251.84"/><polyline class="cls-2" points="2052.18 281.52 2017.97 281.52 2000.86 311.15 2017.97 340.78 2052.18 340.78 2069.29 311.15 2069.26 311.1"/><polygon class="cls-2" points="1898.24 74.07 1915.35 103.71 1915.4 103.71 1949.56 103.71 1966.67 74.07 1949.56 44.44 1915.35 44.44 1898.24 74.07"/><polygon class="cls-2" points="1898.24 311.13 1915.35 340.77 1949.56 340.77 1966.67 311.13 1949.56 281.5 1915.4 281.5 1915.35 281.5 1898.24 311.13"/><line class="cls-2" x1="1846.96" y1="103.71" x2="1864.07" y2="133.34"/><polyline class="cls-2" points="1898.29 133.34 1915.4 103.71 1898.29 74.07 1898.24 74.07 1864.07 74.07"/><polyline class="cls-2" points="1898.29 192.6 1915.4 162.97 1898.29 133.34 1864.07 133.34 1846.96 162.97 1864.07 192.6"/><polyline class="cls-2" points="1898.29 251.87 1915.4 222.24 1898.29 192.6 1864.07 192.6 1846.96 222.24 1864.07 251.87"/><polyline class="cls-2" points="1864.07 311.13 1898.24 311.13 1898.29 311.13 1915.4 281.5 1898.29 251.87 1864.07 251.87 1846.96 281.5"/><polygon class="cls-2" points="1864.07 74.07 1846.96 44.44 1812.75 44.44 1795.64 74.07 1812.75 103.71 1846.96 103.71 1864.07 74.07"/><polygon class="cls-2" points="1846.96 281.5 1812.75 281.5 1795.64 311.13 1812.75 340.77 1846.96 340.77 1864.07 311.13 1846.96 281.5"/><polyline class="cls-2" points="1744.34 103.69 1761.45 74.06 1744.34 44.43 1710.13 44.43 1693.02 74.06 1710.13 103.69"/><polyline class="cls-2" points="1744.34 162.96 1761.45 133.32 1744.34 103.69 1710.13 103.69 1693.02 133.32"/><line class="cls-2" x1="1693.02" y1="192.59" x2="1710.13" y2="222.22"/><polyline class="cls-2" points="1744.34 222.22 1761.45 192.59 1744.34 162.96 1710.13 162.96"/><polyline class="cls-2" points="1744.34 281.49 1761.45 251.85 1744.34 222.22 1710.13 222.22 1693.02 251.85 1710.13 281.49"/><polygon class="cls-2" points="1710.13 281.49 1693.02 311.12 1710.13 340.75 1744.34 340.75 1761.45 311.12 1744.34 281.49 1710.13 281.49"/><polygon class="cls-2" points="1641.69 162.96 1658.8 192.59 1658.85 192.59 1693.02 192.59 1710.13 162.96 1693.02 133.32 1658.85 133.32 1658.8 133.32 1641.69 162.96"/><polyline class="cls-2" points="1641.75 103.69 1658.85 74.06 1641.75 44.43 1607.53 44.43 1590.42 74.06 1607.53 103.69"/><polyline class="cls-2" points="1641.75 162.96 1658.85 133.32 1641.75 103.69 1607.53 103.69 1590.42 133.32 1607.53 162.96"/><polyline class="cls-2" points="1641.75 222.22 1658.85 192.59 1641.75 162.96 1641.69 162.96 1607.53 162.96 1590.42 192.59 1607.53 222.22"/><polyline class="cls-2" points="1641.75 281.49 1658.85 251.85 1641.75 222.22 1607.53 222.22 1590.42 251.85 1607.53 281.49"/><polygon class="cls-2" points="1607.53 281.49 1590.42 311.12 1607.53 340.75 1641.75 340.75 1658.85 311.12 1641.75 281.49 1607.53 281.49"/><polyline class="cls-2" points="2308.7 74.06 2325.8 103.69 2360.02 103.69 2377.13 74.06 2360.02 44.43 2325.8 44.43"/><polyline class="cls-2" points="2308.7 192.59 2325.8 222.22 2360.02 222.22 2377.13 192.59 2360.02 162.96 2325.8 162.96"/><polyline class="cls-2" points="2308.7 311.12 2325.8 340.75 2360.02 340.75 2377.13 311.12 2360.02 281.49 2325.8 281.49"/><polygon class="cls-2" points="2257.37 162.96 2274.48 192.59 2274.53 192.59 2308.7 192.59 2325.8 162.96 2308.7 133.32 2274.53 133.32 2274.48 133.32 2257.37 162.96"/><polygon class="cls-2" points="2257.37 44.43 2274.48 74.06 2274.53 74.06 2308.7 74.06 2325.8 44.43 2308.7 14.79 2274.48 14.79 2257.37 44.43"/><polygon class="cls-2" points="2257.37 281.49 2274.48 311.12 2274.53 311.12 2308.7 311.12 2325.8 281.49 2308.7 251.85 2274.53 251.85 2274.48 251.85 2257.37 281.49"/><polyline class="cls-2" points="2257.37 44.43 2223.21 44.43 2206.1 74.06 2223.21 103.69"/><line class="cls-2" x1="2257.42" y1="103.69" x2="2274.53" y2="74.06"/><polyline class="cls-2" points="2257.42 162.96 2274.53 133.32 2257.42 103.69 2223.21 103.69 2206.1 133.32 2223.21 162.96"/><polyline class="cls-2" points="2257.42 222.22 2274.53 192.59 2257.42 162.96 2257.37 162.96 2223.21 162.96 2206.1 192.59 2223.21 222.22"/><polyline class="cls-2" points="2257.42 281.49 2274.53 251.85 2257.42 222.22 2223.21 222.22 2206.1 251.85 2223.21 281.49"/><polygon class="cls-2" points="2223.21 281.49 2206.1 311.12 2223.21 340.75 2257.42 340.75 2274.53 311.12 2257.42 281.49 2257.37 281.49 2223.21 281.49"/><polyline class="cls-2" points="2154.77 103.69 2171.88 74.06 2154.77 44.43 2120.56 44.43 2103.45 74.06 2120.56 103.69"/><polyline class="cls-2" points="2154.77 162.96 2171.88 133.32 2154.77 103.69 2120.56 103.69 2103.45 133.32 2120.56 162.96"/><polyline class="cls-2" points="2154.77 222.22 2171.88 192.59 2154.77 162.96 2120.56 162.96 2103.45 192.59 2120.56 222.22"/><polyline class="cls-2" points="2154.77 281.49 2171.88 251.85 2154.77 222.22 2120.56 222.22 2103.46 251.84 2103.45 251.85 2120.56 281.49"/><polygon class="cls-2" points="2103.46 311.1 2103.45 311.12 2120.56 340.75 2154.77 340.75 2171.88 311.12 2154.77 281.49 2120.58 281.49 2120.56 281.49 2103.46 311.1"/><polygon class="cls-2" points="2069.26 311.1 2103.46 311.1 2103.48 311.1 2120.58 281.49 2120.59 281.47 2103.48 251.84 2103.46 251.84 2069.27 251.84 2069.26 251.84 2052.15 281.47 2052.18 281.52 2069.26 311.1"/></g><g id="Layer_1" data-name="Layer 1"><path class="cls-4" d="M1404.57,268.2,1493,319l-88.4,51.29s-88.4-51-88.4-51Z"/><polygon class="cls-4" points="1404.57 166.12 1404.57 268.2 1316.17 319.23 1316.17 217.16 1404.57 166.12"/><polygon class="cls-4" points="1492.97 216.91 1492.97 318.98 1404.57 267.95 1404.57 165.87 1492.97 216.91"/><path class="cls-4" d="M1227.77,268.2l88.4,50.78-88.4,51.29s-88.4-51-88.4-51Z"/><polygon class="cls-4" points="1227.77 166.12 1227.77 268.2 1139.37 319.23 1139.37 217.16 1227.77 166.12"/><polygon class="cls-4" points="1316.17 216.91 1316.17 318.98 1227.77 267.95 1227.77 165.87 1316.17 216.91"/><path class="cls-4" d="M1316.17,115.33l88.4,50.79-88.4,51.29s-88.4-51-88.4-51Z"/><polygon class="cls-4" points="1316.17 13.26 1316.17 115.33 1227.77 166.37 1227.77 64.3 1316.17 13.26"/><polygon class="cls-4" points="1404.57 64.05 1404.57 166.12 1316.17 115.08 1316.17 13.01 1404.57 64.05"/></g><g id="Layer_10" data-name="Layer 10"><polygon class="cls-5" points="205.18 44.44 170.96 44.44 153.85 74.07 119.63 74.07 102.56 103.69 68.34 103.69 51.23 133.32 68.34 162.96 51.23 192.59 68.34 222.22 51.23 251.85 68.34 281.49 102.53 281.5 119.63 311.13 153.85 311.13 170.96 340.76 205.18 340.76 222.28 311.13 205.18 281.5 170.96 281.5 153.85 251.87 119.66 251.85 102.56 222.22 119.66 192.59 102.56 162.96 119.66 133.32 153.85 133.34 170.96 103.7 205.18 103.7 222.28 74.07 205.18 44.44"/><polygon class="cls-5" points="273.56 44.44 307.77 44.44 324.88 74.07 307.77 103.7 324.88 133.34 307.77 162.97 324.88 192.6 307.77 222.24 324.88 251.87 307.77 281.5 324.88 311.13 359.07 311.15 376.18 281.51 359.07 251.88 376.18 222.25 359.07 192.62 376.18 162.99 359.07 133.35 376.18 103.72 359.07 74.09 376.18 44.45 410.39 44.45 427.5 74.09 410.39 103.72 427.5 133.35 410.39 162.99 427.5 192.62 410.39 222.25 427.5 251.88 410.39 281.51 427.5 311.15 410.39 340.78 376.21 340.76 359.1 370.4 324.88 370.4 307.77 340.76 273.56 340.76 256.45 311.13 273.56 281.5 256.45 251.87 273.56 222.24 256.45 192.6 273.56 162.97 256.45 133.34 273.56 103.7 256.45 74.07 273.56 44.44"/><polygon class="cls-5" points="478.77 44.43 461.66 74.06 478.77 103.69 461.66 133.32 478.77 162.96 461.66 192.59 478.77 222.22 461.66 251.85 478.77 281.49 461.66 311.12 478.77 340.75 512.98 340.75 530.09 370.38 564.31 370.38 581.42 340.75 615.63 340.75 632.74 311.12 615.63 281.49 632.74 251.85 615.63 222.22 581.42 222.22 564.31 192.59 581.42 162.96 615.63 162.96 632.74 133.32 615.63 103.69 632.74 74.06 615.63 44.43 581.42 44.43 564.31 14.79 530.09 14.79 512.98 44.43 478.77 44.43"/><polygon class="cls-5" points="530.09 74.06 564.31 74.06 581.42 103.69 564.31 133.32 530.09 133.32 512.98 103.69 530.09 74.06"/><polygon class="cls-5" points="564.31 251.85 581.42 281.49 564.31 311.12 530.09 311.12 512.98 281.49 530.09 251.85 564.31 251.85"/><polygon class="cls-5" points="684.02 44.43 718.23 44.43 735.31 74.07 769.53 74.07 786.64 44.44 820.85 44.44 837.96 74.07 820.85 103.7 786.64 103.7 769.53 133.34 786.64 162.97 769.53 192.6 786.64 222.24 769.53 251.87 786.64 281.49 820.85 281.5 837.96 311.13 820.85 340.76 786.64 340.76 769.53 311.12 735.34 311.12 718.23 340.75 684.02 340.75 666.91 311.12 684.02 281.49 718.2 281.49 735.31 251.85 718.2 222.24 735.31 192.6 718.2 162.97 735.31 133.34 718.23 103.69 684.02 103.69 666.91 74.06 684.02 44.43"/><polygon class="cls-5" points="1026.07 44.45 991.85 44.45 974.78 74.07 940.56 74.07 923.45 103.7 889.23 103.7 872.13 133.34 889.23 162.97 872.13 192.6 889.23 222.24 872.13 251.87 889.23 281.5 923.45 281.5 940.56 311.13 974.75 311.15 991.85 340.78 1026.07 340.78 1043.18 311.15 1026.07 281.51 991.85 281.51 974.78 251.87 940.56 251.87 923.45 222.24 940.56 192.6 923.45 162.97 940.56 133.34 974.78 133.34 991.85 103.72 1026.07 103.72 1043.18 74.09 1026.07 44.45"/><polygon class="cls-5" points="1590.42 74.06 1607.53 44.43 1641.75 44.43 1658.86 74.06 1641.75 103.69 1658.81 133.32 1693.02 133.32 1710.13 103.69 1693.02 74.06 1710.13 44.43 1744.35 44.43 1761.45 74.06 1744.35 103.69 1761.45 133.32 1744.35 162.96 1761.45 192.59 1744.35 222.22 1761.45 251.85 1744.35 281.49 1761.45 311.12 1744.35 340.75 1710.13 340.75 1693.02 311.12 1710.13 281.49 1693.02 251.85 1710.13 222.22 1693.02 192.59 1658.81 192.59 1641.75 222.22 1658.86 251.85 1641.75 281.49 1658.86 311.12 1641.75 340.75 1607.53 340.75 1590.42 311.12 1607.53 281.49 1590.42 251.85 1607.53 222.22 1590.42 192.59 1607.53 162.96 1590.42 133.32 1607.53 103.69 1590.42 74.06"/><polygon class="cls-5" points="1812.75 44.44 1846.97 44.44 1864.08 74.07 1898.29 74.07 1915.35 44.44 1949.57 44.44 1966.67 74.07 1949.57 103.7 1915.35 103.7 1898.29 133.34 1915.4 162.97 1898.29 192.6 1915.4 222.24 1898.29 251.87 1915.4 281.5 1949.57 281.5 1966.67 311.13 1949.57 340.76 1915.35 340.76 1898.24 311.13 1864.08 311.13 1846.97 340.76 1812.75 340.76 1795.64 311.13 1812.75 281.5 1846.97 281.5 1864.08 251.87 1846.97 222.24 1864.08 192.6 1846.97 162.97 1864.08 133.34 1846.97 103.7 1812.75 103.7 1795.64 74.07 1812.75 44.44"/><polygon class="cls-5" points="2017.97 44.45 2052.18 44.45 2069.29 74.09 2052.18 103.72 2069.29 133.35 2052.18 162.99 2069.29 192.62 2052.18 222.25 2069.26 251.84 2103.45 251.85 2120.56 222.22 2103.45 192.59 2120.56 162.96 2103.45 133.32 2120.56 103.69 2103.45 74.06 2120.56 44.43 2154.78 44.43 2171.88 74.06 2154.78 103.69 2171.88 133.32 2154.78 162.96 2171.88 192.59 2154.78 222.22 2171.88 251.85 2154.78 281.49 2171.88 311.12 2154.78 340.75 2120.56 340.75 2103.48 311.1 2069.26 311.1 2052.18 340.78 2017.97 340.78 2000.86 311.15 2017.97 281.51 2000.86 251.88 2017.97 222.25 2000.86 192.62 2017.97 162.99 2000.86 133.35 2017.97 103.72 2000.86 74.09 2017.97 44.45"/><polygon class="cls-5" points="2377.13 74.06 2360.02 103.69 2325.81 103.69 2308.7 74.06 2274.53 74.06 2257.43 103.69 2274.53 133.32 2308.7 133.32 2325.81 162.96 2360.02 162.96 2377.13 192.59 2360.02 222.22 2325.81 222.22 2308.7 192.59 2274.53 192.59 2257.43 222.22 2274.53 251.85 2308.7 251.85 2325.81 281.49 2360.02 281.49 2377.13 311.12 2360.02 340.75 2325.81 340.75 2308.7 311.12 2274.53 311.12 2257.43 340.75 2223.21 340.75 2206.1 311.12 2223.21 281.49 2206.1 251.85 2223.21 222.22 2206.1 192.59 2223.21 162.96 2206.1 133.32 2223.21 103.69 2206.1 74.06 2223.21 44.43 2257.37 44.43 2274.48 14.79 2308.7 14.79 2325.81 44.43 2360.02 44.43 2377.13 74.06"/><polygon class="cls-6" points="1227.77 166.37 1316.17 115.08 1404.57 166.12 1404.57 267.95 1316.17 318.98 1227.77 267.95 1227.77 166.37"/></g></svg>